<mxfile host="app.diagrams.net" modified="2024-02-25T14:36:55.187Z" agent="Mozilla/5.0 (Macintosh; Intel Mac OS X 10_15_7) AppleWebKit/605.1.15 (KHTML, like Gecko) Version/17.3.1 Safari/605.1.15" etag="WQSR7LeF4JZchfvaAHlm" version="23.1.5" type="github">
  <diagram name="Страница — 1" id="MrUY5nf-4vCNaqiUoCGp">
    <mxGraphModel dx="1010" dy="681" grid="0" gridSize="10" guides="1" tooltips="1" connect="1" arrows="1" fold="1" page="0" pageScale="1" pageWidth="827" pageHeight="1169" math="0" shadow="0">
      <root>
        <mxCell id="0" />
        <mxCell id="1" parent="0" />
        <mxCell id="lQVX6eLietwEVeY7ujKg-1" value="" style="swimlane;startSize=0;" vertex="1" parent="1">
          <mxGeometry x="320" y="240" width="200" height="200" as="geometry" />
        </mxCell>
        <mxCell id="lQVX6eLietwEVeY7ujKg-2" value="&lt;font style=&quot;font-size: 20px;&quot;&gt;Купить товар&lt;/font&gt;" style="text;html=1;align=center;verticalAlign=middle;resizable=0;points=[];autosize=1;strokeColor=none;fillColor=none;" vertex="1" parent="lQVX6eLietwEVeY7ujKg-1">
          <mxGeometry x="25" y="80" width="150" height="40" as="geometry" />
        </mxCell>
        <mxCell id="lQVX6eLietwEVeY7ujKg-3" value="&lt;div style=&quot;text-align: center;&quot;&gt;А0&lt;/div&gt;" style="text;whiteSpace=wrap;html=1;" vertex="1" parent="lQVX6eLietwEVeY7ujKg-1">
          <mxGeometry x="177" y="167" width="20" height="30" as="geometry" />
        </mxCell>
        <mxCell id="lQVX6eLietwEVeY7ujKg-4" value="" style="endArrow=classic;html=1;rounded=0;" edge="1" parent="1">
          <mxGeometry width="50" height="50" relative="1" as="geometry">
            <mxPoint x="340" y="120" as="sourcePoint" />
            <mxPoint x="340" y="240" as="targetPoint" />
          </mxGeometry>
        </mxCell>
        <mxCell id="lQVX6eLietwEVeY7ujKg-5" value="" style="endArrow=classic;html=1;rounded=0;entryX=0.466;entryY=0;entryDx=0;entryDy=0;entryPerimeter=0;" edge="1" parent="1">
          <mxGeometry width="50" height="50" relative="1" as="geometry">
            <mxPoint x="440" y="120" as="sourcePoint" />
            <mxPoint x="440.20000000000005" y="240" as="targetPoint" />
          </mxGeometry>
        </mxCell>
        <mxCell id="lQVX6eLietwEVeY7ujKg-6" value="" style="endArrow=classic;html=1;rounded=0;entryX=0.466;entryY=0;entryDx=0;entryDy=0;entryPerimeter=0;" edge="1" parent="1">
          <mxGeometry width="50" height="50" relative="1" as="geometry">
            <mxPoint x="510" y="120" as="sourcePoint" />
            <mxPoint x="510" y="240" as="targetPoint" />
          </mxGeometry>
        </mxCell>
        <mxCell id="lQVX6eLietwEVeY7ujKg-7" value="&lt;span style=&quot;caret-color: rgb(0, 0, 0); color: rgb(0, 0, 0); font-family: Helvetica; font-style: normal; font-variant-caps: normal; font-weight: 400; letter-spacing: normal; text-align: center; text-indent: 0px; text-transform: none; word-spacing: 0px; -webkit-text-stroke-width: 0px; background-color: rgb(251, 251, 251); text-decoration: none; float: none; display: inline !important;&quot;&gt;&lt;font style=&quot;font-size: 12px;&quot;&gt;Закон о права потребителей&lt;/font&gt;&lt;/span&gt;" style="text;whiteSpace=wrap;html=1;" vertex="1" parent="1">
          <mxGeometry x="240" y="150" width="90" height="40" as="geometry" />
        </mxCell>
        <mxCell id="lQVX6eLietwEVeY7ujKg-8" value="&lt;span style=&quot;caret-color: rgb(0, 0, 0); color: rgb(0, 0, 0); font-family: Helvetica; font-style: normal; font-variant-caps: normal; font-weight: 400; letter-spacing: normal; text-align: center; text-indent: 0px; text-transform: none; word-spacing: 0px; -webkit-text-stroke-width: 0px; background-color: rgb(251, 251, 251); text-decoration: none; float: none; display: inline !important;&quot;&gt;&lt;font style=&quot;font-size: 12px;&quot;&gt;Регламент &lt;br&gt;о возврате и гарантии&lt;/font&gt;&lt;/span&gt;" style="text;whiteSpace=wrap;html=1;" vertex="1" parent="1">
          <mxGeometry x="518" y="145" width="70" height="50" as="geometry" />
        </mxCell>
        <mxCell id="lQVX6eLietwEVeY7ujKg-9" value="&lt;span style=&quot;caret-color: rgb(0, 0, 0); color: rgb(0, 0, 0); font-family: Helvetica; font-style: normal; font-variant-caps: normal; font-weight: 400; letter-spacing: normal; text-align: center; text-indent: 0px; text-transform: none; word-spacing: 0px; -webkit-text-stroke-width: 0px; background-color: rgb(251, 251, 251); text-decoration: none; float: none; display: inline !important;&quot;&gt;&lt;font style=&quot;font-size: 12px;&quot;&gt;Регламент &lt;br&gt;о доставке&lt;/font&gt;&lt;/span&gt;" style="text;whiteSpace=wrap;html=1;" vertex="1" parent="1">
          <mxGeometry x="365" y="150" width="70" height="40" as="geometry" />
        </mxCell>
        <mxCell id="lQVX6eLietwEVeY7ujKg-10" value="&lt;span style=&quot;caret-color: rgb(0, 0, 0); color: rgb(0, 0, 0); font-family: Helvetica; font-style: normal; font-variant-caps: normal; font-weight: 400; letter-spacing: normal; text-align: center; text-indent: 0px; text-transform: none; word-spacing: 0px; -webkit-text-stroke-width: 0px; background-color: rgb(251, 251, 251); text-decoration: none; float: none; display: inline !important;&quot;&gt;&lt;font style=&quot;font-size: 12px;&quot;&gt;С1&lt;/font&gt;&lt;/span&gt;" style="text;whiteSpace=wrap;html=1;" vertex="1" parent="1">
          <mxGeometry x="330" y="90" width="20" height="30" as="geometry" />
        </mxCell>
        <mxCell id="lQVX6eLietwEVeY7ujKg-11" value="&lt;span style=&quot;caret-color: rgb(0, 0, 0); color: rgb(0, 0, 0); font-family: Helvetica; font-style: normal; font-variant-caps: normal; font-weight: 400; letter-spacing: normal; text-align: center; text-indent: 0px; text-transform: none; word-spacing: 0px; -webkit-text-stroke-width: 0px; background-color: rgb(251, 251, 251); text-decoration: none; float: none; display: inline !important;&quot;&gt;&lt;font style=&quot;font-size: 12px;&quot;&gt;С2&lt;/font&gt;&lt;/span&gt;" style="text;whiteSpace=wrap;html=1;" vertex="1" parent="1">
          <mxGeometry x="430" y="90" width="20" height="30" as="geometry" />
        </mxCell>
        <mxCell id="lQVX6eLietwEVeY7ujKg-12" value="&lt;span style=&quot;caret-color: rgb(0, 0, 0); color: rgb(0, 0, 0); font-family: Helvetica; font-style: normal; font-variant-caps: normal; font-weight: 400; letter-spacing: normal; text-align: center; text-indent: 0px; text-transform: none; word-spacing: 0px; -webkit-text-stroke-width: 0px; background-color: rgb(251, 251, 251); text-decoration: none; float: none; display: inline !important;&quot;&gt;&lt;font style=&quot;font-size: 12px;&quot;&gt;С3&lt;/font&gt;&lt;/span&gt;" style="text;whiteSpace=wrap;html=1;" vertex="1" parent="1">
          <mxGeometry x="500" y="90" width="20" height="30" as="geometry" />
        </mxCell>
        <mxCell id="lQVX6eLietwEVeY7ujKg-13" value="" style="endArrow=classic;html=1;rounded=0;entryX=0.006;entryY=0.204;entryDx=0;entryDy=0;entryPerimeter=0;" edge="1" parent="1" target="lQVX6eLietwEVeY7ujKg-1">
          <mxGeometry width="50" height="50" relative="1" as="geometry">
            <mxPoint x="110" y="281" as="sourcePoint" />
            <mxPoint x="230" y="230" as="targetPoint" />
          </mxGeometry>
        </mxCell>
        <mxCell id="lQVX6eLietwEVeY7ujKg-14" value="" style="endArrow=classic;html=1;rounded=0;" edge="1" parent="1">
          <mxGeometry width="50" height="50" relative="1" as="geometry">
            <mxPoint x="110" y="320" as="sourcePoint" />
            <mxPoint x="319.9999999999999" y="320.27272727272725" as="targetPoint" />
          </mxGeometry>
        </mxCell>
        <mxCell id="lQVX6eLietwEVeY7ujKg-15" value="" style="endArrow=classic;html=1;rounded=0;" edge="1" parent="1">
          <mxGeometry width="50" height="50" relative="1" as="geometry">
            <mxPoint x="110" y="360" as="sourcePoint" />
            <mxPoint x="320" y="360" as="targetPoint" />
          </mxGeometry>
        </mxCell>
        <mxCell id="lQVX6eLietwEVeY7ujKg-16" value="" style="endArrow=classic;html=1;rounded=0;" edge="1" parent="1">
          <mxGeometry width="50" height="50" relative="1" as="geometry">
            <mxPoint x="110" y="400" as="sourcePoint" />
            <mxPoint x="320" y="400" as="targetPoint" />
          </mxGeometry>
        </mxCell>
        <mxCell id="lQVX6eLietwEVeY7ujKg-17" value="&lt;div style=&quot;text-align: center;&quot;&gt;Деньги покупателя&lt;/div&gt;" style="text;whiteSpace=wrap;html=1;" vertex="1" parent="1">
          <mxGeometry x="190" y="256" width="120" height="20" as="geometry" />
        </mxCell>
        <mxCell id="lQVX6eLietwEVeY7ujKg-18" value="&lt;div style=&quot;text-align: center;&quot;&gt;Информация о товаре&lt;/div&gt;" style="text;whiteSpace=wrap;html=1;" vertex="1" parent="1">
          <mxGeometry x="170" y="297" width="140" height="20" as="geometry" />
        </mxCell>
        <mxCell id="lQVX6eLietwEVeY7ujKg-19" value="&lt;div style=&quot;text-align: center;&quot;&gt;Товар&lt;/div&gt;" style="text;whiteSpace=wrap;html=1;" vertex="1" parent="1">
          <mxGeometry x="174" y="336" width="50" height="20" as="geometry" />
        </mxCell>
        <mxCell id="lQVX6eLietwEVeY7ujKg-20" value="&lt;div style=&quot;text-align: center;&quot;&gt;Данные покупателя&lt;/div&gt;" style="text;whiteSpace=wrap;html=1;" vertex="1" parent="1">
          <mxGeometry x="144" y="375" width="146" height="20" as="geometry" />
        </mxCell>
        <mxCell id="lQVX6eLietwEVeY7ujKg-21" value="&lt;span style=&quot;caret-color: rgb(0, 0, 0); color: rgb(0, 0, 0); font-family: Helvetica; font-style: normal; font-variant-caps: normal; font-weight: 400; letter-spacing: normal; text-align: center; text-indent: 0px; text-transform: none; word-spacing: 0px; -webkit-text-stroke-width: 0px; background-color: rgb(251, 251, 251); text-decoration: none; float: none; display: inline !important;&quot;&gt;&lt;font style=&quot;font-size: 12px;&quot;&gt;I1&lt;/font&gt;&lt;/span&gt;" style="text;whiteSpace=wrap;html=1;" vertex="1" parent="1">
          <mxGeometry x="90" y="267" width="20" height="30" as="geometry" />
        </mxCell>
        <mxCell id="lQVX6eLietwEVeY7ujKg-22" value="&lt;span style=&quot;caret-color: rgb(0, 0, 0); color: rgb(0, 0, 0); font-family: Helvetica; font-style: normal; font-variant-caps: normal; font-weight: 400; letter-spacing: normal; text-align: center; text-indent: 0px; text-transform: none; word-spacing: 0px; -webkit-text-stroke-width: 0px; background-color: rgb(251, 251, 251); text-decoration: none; float: none; display: inline !important;&quot;&gt;&lt;font style=&quot;font-size: 12px;&quot;&gt;I2&lt;/font&gt;&lt;/span&gt;" style="text;whiteSpace=wrap;html=1;" vertex="1" parent="1">
          <mxGeometry x="90" y="306" width="20" height="30" as="geometry" />
        </mxCell>
        <mxCell id="lQVX6eLietwEVeY7ujKg-23" value="&lt;span style=&quot;caret-color: rgb(0, 0, 0); color: rgb(0, 0, 0); font-family: Helvetica; font-style: normal; font-variant-caps: normal; font-weight: 400; letter-spacing: normal; text-align: center; text-indent: 0px; text-transform: none; word-spacing: 0px; -webkit-text-stroke-width: 0px; background-color: rgb(251, 251, 251); text-decoration: none; float: none; display: inline !important;&quot;&gt;&lt;font style=&quot;font-size: 12px;&quot;&gt;I3&lt;/font&gt;&lt;/span&gt;" style="text;whiteSpace=wrap;html=1;" vertex="1" parent="1">
          <mxGeometry x="90" y="345" width="20" height="30" as="geometry" />
        </mxCell>
        <mxCell id="lQVX6eLietwEVeY7ujKg-24" value="&lt;span style=&quot;caret-color: rgb(0, 0, 0); color: rgb(0, 0, 0); font-family: Helvetica; font-style: normal; font-variant-caps: normal; font-weight: 400; letter-spacing: normal; text-align: center; text-indent: 0px; text-transform: none; word-spacing: 0px; -webkit-text-stroke-width: 0px; background-color: rgb(251, 251, 251); text-decoration: none; float: none; display: inline !important;&quot;&gt;&lt;font style=&quot;font-size: 12px;&quot;&gt;I4&lt;/font&gt;&lt;/span&gt;" style="text;whiteSpace=wrap;html=1;" vertex="1" parent="1">
          <mxGeometry x="90" y="380" width="20" height="30" as="geometry" />
        </mxCell>
        <mxCell id="lQVX6eLietwEVeY7ujKg-25" value="" style="endArrow=classic;html=1;rounded=0;entryX=0.006;entryY=0.204;entryDx=0;entryDy=0;entryPerimeter=0;" edge="1" parent="1">
          <mxGeometry width="50" height="50" relative="1" as="geometry">
            <mxPoint x="520" y="300.16999999999996" as="sourcePoint" />
            <mxPoint x="731" y="300.16999999999996" as="targetPoint" />
          </mxGeometry>
        </mxCell>
        <mxCell id="lQVX6eLietwEVeY7ujKg-26" value="" style="endArrow=classic;html=1;rounded=0;" edge="1" parent="1">
          <mxGeometry width="50" height="50" relative="1" as="geometry">
            <mxPoint x="520" y="339.16999999999996" as="sourcePoint" />
            <mxPoint x="729.9999999999999" y="339.4427272727272" as="targetPoint" />
          </mxGeometry>
        </mxCell>
        <mxCell id="lQVX6eLietwEVeY7ujKg-27" value="" style="endArrow=classic;html=1;rounded=0;" edge="1" parent="1">
          <mxGeometry width="50" height="50" relative="1" as="geometry">
            <mxPoint x="520" y="379.16999999999996" as="sourcePoint" />
            <mxPoint x="730" y="379.16999999999996" as="targetPoint" />
          </mxGeometry>
        </mxCell>
        <mxCell id="lQVX6eLietwEVeY7ujKg-28" value="&lt;div style=&quot;text-align: center;&quot;&gt;Оплаченный товар&lt;/div&gt;" style="text;whiteSpace=wrap;html=1;" vertex="1" parent="1">
          <mxGeometry x="560" y="276.09" width="120" height="20" as="geometry" />
        </mxCell>
        <mxCell id="lQVX6eLietwEVeY7ujKg-29" value="&lt;div style=&quot;text-align: center;&quot;&gt;Электронный чек&lt;/div&gt;" style="text;whiteSpace=wrap;html=1;" vertex="1" parent="1">
          <mxGeometry x="560" y="317.09" width="120" height="20" as="geometry" />
        </mxCell>
        <mxCell id="lQVX6eLietwEVeY7ujKg-30" value="&lt;div style=&quot;text-align: center;&quot;&gt;Электронный&lt;/div&gt;&lt;div style=&quot;text-align: center;&quot;&gt;гарантийный талон&lt;/div&gt;" style="text;whiteSpace=wrap;html=1;" vertex="1" parent="1">
          <mxGeometry x="560" y="343.04999999999995" width="120" height="33.91" as="geometry" />
        </mxCell>
        <mxCell id="lQVX6eLietwEVeY7ujKg-31" value="&lt;span style=&quot;caret-color: rgb(0, 0, 0); color: rgb(0, 0, 0); font-family: Helvetica; font-style: normal; font-variant-caps: normal; font-weight: 400; letter-spacing: normal; text-align: center; text-indent: 0px; text-transform: none; word-spacing: 0px; -webkit-text-stroke-width: 0px; background-color: rgb(251, 251, 251); text-decoration: none; float: none; display: inline !important;&quot;&gt;&lt;font style=&quot;font-size: 12px;&quot;&gt;О1&lt;/font&gt;&lt;/span&gt;" style="text;whiteSpace=wrap;html=1;" vertex="1" parent="1">
          <mxGeometry x="740" y="287" width="20" height="30" as="geometry" />
        </mxCell>
        <mxCell id="lQVX6eLietwEVeY7ujKg-32" value="&lt;span style=&quot;caret-color: rgb(0, 0, 0); color: rgb(0, 0, 0); font-family: Helvetica; font-style: normal; font-variant-caps: normal; font-weight: 400; letter-spacing: normal; text-align: center; text-indent: 0px; text-transform: none; word-spacing: 0px; -webkit-text-stroke-width: 0px; background-color: rgb(251, 251, 251); text-decoration: none; float: none; display: inline !important;&quot;&gt;&lt;font style=&quot;font-size: 12px;&quot;&gt;O2&lt;/font&gt;&lt;/span&gt;" style="text;whiteSpace=wrap;html=1;" vertex="1" parent="1">
          <mxGeometry x="740" y="325" width="20" height="30" as="geometry" />
        </mxCell>
        <mxCell id="lQVX6eLietwEVeY7ujKg-33" value="&lt;span style=&quot;caret-color: rgb(0, 0, 0); color: rgb(0, 0, 0); font-family: Helvetica; font-style: normal; font-variant-caps: normal; font-weight: 400; letter-spacing: normal; text-align: center; text-indent: 0px; text-transform: none; word-spacing: 0px; -webkit-text-stroke-width: 0px; background-color: rgb(251, 251, 251); text-decoration: none; float: none; display: inline !important;&quot;&gt;&lt;font style=&quot;font-size: 12px;&quot;&gt;O3&lt;/font&gt;&lt;/span&gt;" style="text;whiteSpace=wrap;html=1;" vertex="1" parent="1">
          <mxGeometry x="740" y="365" width="20" height="30" as="geometry" />
        </mxCell>
        <mxCell id="lQVX6eLietwEVeY7ujKg-34" value="" style="endArrow=classic;html=1;rounded=0;entryX=0.198;entryY=1.01;entryDx=0;entryDy=0;entryPerimeter=0;" edge="1" parent="1" target="lQVX6eLietwEVeY7ujKg-1">
          <mxGeometry width="50" height="50" relative="1" as="geometry">
            <mxPoint x="360" y="560" as="sourcePoint" />
            <mxPoint x="309.58" y="560" as="targetPoint" />
          </mxGeometry>
        </mxCell>
        <mxCell id="lQVX6eLietwEVeY7ujKg-35" value="" style="endArrow=classic;html=1;rounded=0;entryX=0.5;entryY=1;entryDx=0;entryDy=0;" edge="1" parent="1">
          <mxGeometry width="50" height="50" relative="1" as="geometry">
            <mxPoint x="456" y="560" as="sourcePoint" />
            <mxPoint x="456" y="440" as="targetPoint" />
          </mxGeometry>
        </mxCell>
        <mxCell id="lQVX6eLietwEVeY7ujKg-37" value="&lt;span style=&quot;caret-color: rgb(0, 0, 0); color: rgb(0, 0, 0); font-family: Helvetica; font-style: normal; font-variant-caps: normal; font-weight: 400; letter-spacing: normal; text-align: center; text-indent: 0px; text-transform: none; word-spacing: 0px; -webkit-text-stroke-width: 0px; background-color: rgb(251, 251, 251); text-decoration: none; float: none; display: inline !important;&quot;&gt;&lt;font style=&quot;font-size: 12px;&quot;&gt;Покупатель&lt;/font&gt;&lt;/span&gt;" style="text;whiteSpace=wrap;html=1;" vertex="1" parent="1">
          <mxGeometry x="283" y="490" width="70" height="40" as="geometry" />
        </mxCell>
        <mxCell id="lQVX6eLietwEVeY7ujKg-38" value="&lt;div style=&quot;text-align: center;&quot;&gt;Веб-сайт&lt;/div&gt;" style="text;whiteSpace=wrap;html=1;" vertex="1" parent="1">
          <mxGeometry x="394" y="490" width="60" height="40" as="geometry" />
        </mxCell>
        <mxCell id="lQVX6eLietwEVeY7ujKg-40" value="&lt;span style=&quot;caret-color: rgb(0, 0, 0); color: rgb(0, 0, 0); font-family: Helvetica; font-style: normal; font-variant-caps: normal; font-weight: 400; letter-spacing: normal; text-align: center; text-indent: 0px; text-transform: none; word-spacing: 0px; -webkit-text-stroke-width: 0px; background-color: rgb(251, 251, 251); text-decoration: none; float: none; display: inline !important;&quot;&gt;&lt;font style=&quot;font-size: 12px;&quot;&gt;M1&lt;/font&gt;&lt;/span&gt;" style="text;whiteSpace=wrap;html=1;" vertex="1" parent="1">
          <mxGeometry x="350" y="560" width="20" height="30" as="geometry" />
        </mxCell>
        <mxCell id="lQVX6eLietwEVeY7ujKg-41" value="&lt;span style=&quot;caret-color: rgb(0, 0, 0); color: rgb(0, 0, 0); font-family: Helvetica; font-style: normal; font-variant-caps: normal; font-weight: 400; letter-spacing: normal; text-align: center; text-indent: 0px; text-transform: none; word-spacing: 0px; -webkit-text-stroke-width: 0px; background-color: rgb(251, 251, 251); text-decoration: none; float: none; display: inline !important;&quot;&gt;&lt;font style=&quot;font-size: 12px;&quot;&gt;M2&lt;/font&gt;&lt;/span&gt;" style="text;whiteSpace=wrap;html=1;" vertex="1" parent="1">
          <mxGeometry x="450" y="560" width="20" height="30" as="geometry" />
        </mxCell>
        <mxCell id="lQVX6eLietwEVeY7ujKg-43" value="&lt;div style=&quot;&quot;&gt;&lt;b&gt;Цель&lt;/b&gt;: показать процесс покупка товара в интернет-магазине после внедрения сайта интернет-магазина&lt;/div&gt;&lt;div style=&quot;&quot;&gt;&lt;br&gt;&lt;/div&gt;&lt;div style=&quot;&quot;&gt;&lt;b&gt;Точка зрения&lt;/b&gt;: покупатель&lt;/div&gt;" style="text;whiteSpace=wrap;html=1;align=left;" vertex="1" parent="1">
          <mxGeometry x="240" y="600" width="360" height="40" as="geometry" />
        </mxCell>
      </root>
    </mxGraphModel>
  </diagram>
</mxfile>
